<?xml version="1.0" encoding="UTF-8"?>
<svg id="Capa_1" data-name="Capa 1" xmlns="http://www.w3.org/2000/svg" viewBox="0 0 283.46 283.46">
  <defs>
    <style>
      .cls-1 {
        fill: #e57819;
      }

      .cls-2 {
        fill: #fe8cc1;
      }

      .cls-3 {
        fill: #fea0cc;
      }

      .cls-4 {
        fill: #d8257a;
      }

      .cls-5 {
        fill: #941953;
      }
    </style>
  </defs>
  <g>
    <path class="cls-2" d="M142.25,10.47c3.36,6.4,7.79,12.23,11.35,18.59,10.85,19.39,18.36,41.22,21.41,63.29.85.19,1.04-.27,1.52-.78,5.91-6.09,9.28-11,16.74-16.02,36.76-24.71,84.96-8.66,76.17,40.86-3.07,17.29-17.22,56.92-37.89,58.84-3.71.34-7.29-.87-11-.5,12.41,11.99,24.1,24.12,32.51,39.39,9.39,17.04,13.66,35.35,17.64,54.26-6.62-1.39-13.44-2.55-19.96-4.34-22.03-6.07-40.54-20.24-59.36-32.5-.42-2.67-1.71-5.42-1.99-7.98-.81-7.38,7.11-10.85,9.01-18.01,2.4-9.06-3.17-12.21-7.22-18.58-4.34-6.82.42-10.78.72-17.62.24-5.63-2.26-9.14-6.48-12.44l-23.2-12.88c-1.06-2.51-4.02-6.42-6.14-8.19,14.57-4.22,29.95-7.13,44.4-11.64,14.29-4.46,26.13-12.45,33.8-25.57,2.07-3.55,6.71-10.66.36-12.48-5-1.43-7.41,7.21-9.77,10.74-7.7,11.52-17.98,16.09-30.81,19.86-17.13,5.04-34.86,8.33-51.8,13.96-.34-.01-.69-.01-1.02,0-17.73-5.94-36.37-9.14-54.25-14.59-13.97-4.25-22.5-9.85-30.41-22.3-1.93-3.04-3.1-9.2-7.87-7.82-5.7,1.64-2.47,7.39-.7,10.77,15.5,29.54,48.37,29.35,76.35,38.29.81.26,1.7.32,2.04,1.29-1.36,1.27-4.37,5.87-5.12,7.68l-23.2,12.88c-4.87,3.73-6.9,7.16-6.47,13.47.28,4.16,3.24,9.17,2.43,13.2-.7,3.46-6.09,7.83-7.84,11.61-2.49,5.37-2.24,9.19.52,14.36s8.09,7.38,7.3,13.94c-.36,2.99-2.18,6.57-2.43,9.6-22.06,20.17-49.56,30.52-78.81,35.31,2.3-9.68,4-19.64,6.91-29.17,5.86-19.19,16.56-37.06,30.19-51.7,4.03-4.33,8.73-8.09,12.55-12.53-3.51-.74-6.88.54-10.49.24-18.67-1.55-31.87-34.51-35.94-50.03-4.32-16.5-5.9-32.73,5.73-46.69,21.27-25.52,59.93-13.9,80.11,6.9,1.67,1.72,3.4,4.6,5.09,6.17.5.47.73.94,1.55.75,2.57-21.3,10.07-41.79,19.87-60.73l12.88-21.15h1.02ZM140.05,19.8c-2.29.54-2.77,3.23-2.94,5.24v86.53c0,7.22,8.7,7.72,9.23.49l.02-87.02c-.17-3.79-2.35-6.18-6.31-5.24ZM71.49,205.06c-1.07.09-2.63.93-3.46,1.67-11.9,14.14-29.9,27.02-41.19,41.21-4.67,5.87.19,11.07,5.63,7.17,12.2-14.37,30.42-27.5,41.97-41.96,1.38-1.73,2.33-2.75,1.56-5.15-.55-1.72-2.71-3.08-4.51-2.94ZM211.2,205.05c-3.39.33-5.33,4.7-2.94,7.31l42.97,43.01c4.24,3.24,8.98-.84,6.7-5.68l-43.51-43.49c-.88-.75-2.05-1.27-3.23-1.15Z"/>
    <path class="cls-4" d="M119.73,155.31c-.85.53-.51,1.94-.52,2.81-.15,14.14.35,31.24,17.92,34.55l.05,31.43c.83,5.88,8.29,6.24,9.11-.52,1.16-9.59-.74-21.11.06-30.9,2.91-.55,7.7-3.19,9.96-5.13,9.18-7.88,7.63-18.65,7.44-29.67-.09-5.05.5-8.99-1.54-13.82l23.2,12.88c4.22,3.3,6.73,6.81,6.48,12.44-.3,6.84-5.06,10.81-.72,17.62,4.06,6.36,9.63,9.52,7.22,18.58-1.9,7.16-9.82,10.63-9.01,18.01.28,2.57,1.57,5.31,1.99,7.98,1.16,7.41-.75,12.07-7.21,16.08-5.67,3.53-9.52,2.29-12.49,9.52-1.86,4.52-1.8,7.97-5.47,11.93-8.8,9.5-18.13-1.65-27.96.71-2.29.55-4.59,1.94-6.74,2.47-6.89,1.7-12.85.27-16.5-6.07-3.13-5.43-2.23-11.54-8.08-14.95-8.18-4.77-16.38-5.82-15.36-18.16.25-3.03,2.06-6.6,2.43-9.6.8-6.56-4.58-8.85-7.3-13.94s-3.01-8.99-.52-14.36c1.75-3.78,7.14-8.15,7.84-11.61.81-4.03-2.15-9.04-2.43-13.2-.43-6.31,1.6-9.73,6.47-13.47l23.2-12.88c-1.56,3.75-1.93,7.27-1.54,11.26Z"/>
    <path class="cls-5" d="M141.22,130.74c.34-.01.69-.01,1.02,0,4.78.16,10.1,2.02,13.82,5.12,2.12,1.77,5.08,5.68,6.14,8.19,2.03,4.82,1.45,8.77,1.54,13.82-1.97,4.93-3.97,9.11-8.23,12.5-13.79,10.94-34.07,2.29-35.78-15.05-.39-3.99-.02-7.51,1.54-11.26.75-1.81,3.76-6.4,5.12-7.68,3.41-3.19,10.24-5.47,14.84-5.63Z"/>
    <path class="cls-3" d="M141.22,130.74c-4.6.16-11.43,2.44-14.84,5.63-.34-.97-1.23-1.03-2.04-1.29-27.98-8.94-60.86-8.75-76.35-38.29-1.77-3.38-5-9.13.7-10.77,4.78-1.37,5.94,4.79,7.87,7.82,7.91,12.46,16.44,18.05,30.41,22.3,17.87,5.44,36.52,8.65,54.25,14.59Z"/>
    <path class="cls-3" d="M156.07,135.86c-3.72-3.1-9.03-4.96-13.82-5.12,16.94-5.63,34.67-8.93,51.8-13.96,12.82-3.77,23.1-8.34,30.81-19.86,2.36-3.53,4.77-12.18,9.77-10.74,6.35,1.82,1.71,8.93-.36,12.48-7.67,13.11-19.51,21.11-33.8,25.57-14.45,4.51-29.83,7.42-44.4,11.64Z"/>
    <path class="cls-3" d="M140.05,19.8c3.96-.94,6.14,1.45,6.31,5.24l-.02,87.02c-.53,7.23-9.24,6.73-9.23-.49V25.04c.18-2.01.65-4.7,2.94-5.24Z"/>
    <path class="cls-3" d="M71.49,205.06c1.8-.15,3.96,1.21,4.51,2.94.77,2.4-.17,3.42-1.56,5.15-11.55,14.45-29.78,27.59-41.97,41.96-5.44,3.91-10.3-1.3-5.63-7.17,11.28-14.18,29.29-27.07,41.19-41.21.83-.73,2.39-1.58,3.46-1.67Z"/>
    <path class="cls-3" d="M211.2,205.05c1.18-.11,2.34.41,3.23,1.15l43.51,43.49c2.28,4.84-2.46,8.92-6.7,5.68l-42.97-43.01c-2.39-2.62-.46-6.98,2.94-7.31Z"/>
    <path class="cls-1" d="M163.74,157.86c.2,11.01,1.74,21.78-7.44,29.67-2.27,1.95-7.05,4.58-9.96,5.13-1.78.34-7.43.34-9.21,0-17.57-3.31-18.07-20.42-17.92-34.55,0-.86-.33-2.27.52-2.81,1.72,17.35,21.99,26,35.78,15.05,4.26-3.38,6.26-7.57,8.23-12.5Z"/>
    <path class="cls-5" d="M146.34,192.66c-.8,9.79,1.1,21.32-.06,30.9-.82,6.76-8.28,6.4-9.11.52l-.05-31.43c1.78.34,7.43.34,9.21,0Z"/>
  </g>
  <path d="M15.62,98.76c2.28-24.64,24.93-39.46,48.58-36.73,15.66,1.8,30.73,9.52,41.2,21.23.53-.31.54-.73.72-1.21,2.88-7.76,4.27-17.55,7.39-26.02,4.24-11.52,14.5-33.37,22.63-42.24,4.88-5.33,9.26,3.43,11.72,7.15,12.18,18.38,20.86,40.18,25.06,61.84.66.7,8.65-7.13,9.72-7.95,18.4-14.06,47.79-19.27,66.52-3.2,20.99,18,14.72,46.36,5.3,68.75-5.59,13.29-15.45,30.75-31.2,32.69,12.66,12.7,22.97,27.12,29.75,43.83,4.96,12.24,7.21,25.28,10.39,38.06.13,2.62-1.16,3.99-3.36,5.02h-1.94c-8.59-2.61-17.53-3.94-26.13-6.54-17.07-5.15-32.6-14.04-46.22-25.42-2.03,6.91-7.77,8.21-13.16,11.05-6.08,3.21-4.94,7.09-7.32,12.53-1.09,2.48-4.13,6.34-6.67,7.37-1.31.53-2.55.29-3.58,1.01h-.97l-14.33-3.82c-8.74,1.91-18.67,7.71-24.8-2.31-3.44-5.63-1.67-11.2-8.46-14.77-1.62-.85-3.92-1.38-5.5-2.25-3.16-1.74-6.71-5.26-7.66-8.8-13.68,11.29-29.14,20.31-46.22,25.42-8.6,2.58-17.58,3.83-26.13,6.54h-5.32v-5.81c3.9-15.13,6.77-30.56,13.61-44.73,6.65-13.77,16.18-25.55,26.56-36.61-.85.02-1.7.04-2.54-.13-19.2-3.85-31.58-36.29-35.37-53.22l-2.27-12.02c.19-2.82-.26-5.93,0-8.71ZM135.17,106.99V30.49l-3.95,6.45c-6.52,12.48-11.9,25.64-15.37,39.33-.82,3.22-3.09,11.64-2.97,14.48.04.81.27,1.53.78,2.16l26.11,31.98c7.48-10.14,16.21-19.44,23.67-29.58.88-1.2,2.7-3.14,2.73-4.52.08-3.07-2.28-11.84-3.16-15.28-2.66-10.39-6.54-20.45-10.96-30.19l-8.16-14.84v76.5h-8.71ZM127.91,124.42l-30.24-37.77c-29.66-28.93-83.02-20.44-72.04,29.94,2.85,13.07,13.75,43.53,27.83,47.69,10.47,3.09,30.12-3.78,39.44-9.27l35.97-21.87c-14.54-4.09-29.61-6.92-44.04-11.38-16.92-5.24-30.46-16.88-35.82-34.13l7.76-2.23c4.19,11.88,13.13,21.69,24.82,26.52,2.72,1.12,5.63,1.85,8.45,2.68,12.47,3.68,25.32,6.33,37.85,9.82ZM150.18,133.61c22.74,11.49,44.98,32.77,72.18,31.19,13.14-.76,23.26-23.52,27.06-34.31,6.17-17.55,10.55-38.46-5.34-52.31-21.03-18.33-52.47-3.83-68.23,14.55-8.75,10.2-16.4,21.5-25.18,31.69,13.75-3.86,28.56-6.53,42.11-10.89,10.54-3.39,19.15-9.51,25.07-18.98,1.86-2.97,3.06-6.24,4.73-9.31l7.48,2.64c-4.9,14.57-15.91,25.97-30.03,31.93l-49.84,13.8ZM138.93,140.04c-21.22.66-20.79,33.34.75,33.09,21.92-.26,21.09-33.76-.75-33.09ZM135.17,197.53c-7.35-1.47-14.54-6.55-17.85-13.37-.68-1.41-2.48-6.38-2.48-7.69v-23.48c-2.37,2.37-12.14,5.2-13.3,7.75-1.2,2.63,1.95,9.87,2.16,13.32.24,3.84-.59,6.31-2.51,9.58-1.48,2.52-6.19,7-6.6,9.42-.62,3.69,8.09,10.67,9,16.46s-3.32,13.43-2.09,17.1c.85,2.53,11.33,5.71,14.3,8.93,2.7,2.91,6.13,15.15,7.58,15.65,3.07,1.07,8.18-1.93,11.27-2.61,3.33-.73,6.4-.73,9.73,0,2.87.63,9.84,4.59,12.02,1.9,2.72-3.34,2.95-10.77,6.83-14.95,3.01-3.24,13.09-6.3,14.16-8.59,1.44-3.08-2.79-12.07-1.95-17.44.93-5.93,8.93-12.02,9.06-15.66.11-3.11-8.16-10.3-9.06-15.56-.9-5.25,3.33-14.75,2.05-17.55-1.11-2.43-10.98-5.34-13.3-7.75v23.48c0,1.23-2.13,6.96-2.82,8.32-3.32,6.5-10.46,11.33-17.51,12.75v33.41h-8.71v-33.41ZM33.05,248.36c18.18-3.57,35.5-11.35,50.08-22.76,2.38-1.86,10.68-8.75,11.81-10.94,2.6-5.02-4.53-9.95-6.63-14.06-4.99-9.76.35-13.15,5.16-20.33,2.53-3.78,2.18-4.13,1.38-8.48-.21-1.13-1.49-7.06-2.04-7.17-3.69,1.4-7.22,3.26-10.98,4.5-3.31,1.08-11.19,2.16-13.43,3.51-2.46,1.49-11.91,11.55-14.3,14.26-13.68,15.47-22.87,34.94-26.85,55.2l46.95-46.75c.36-.32.59-.19.96,0,1.4.72,3.76,4.31,5.32,5.35l-47.42,47.68ZM251.81,242.07c-4.01-20.27-13.15-39.72-26.85-55.2-2.1-2.38-12.61-13.42-14.59-14.46-2.33-1.22-9.15-2.08-12.38-3.1-1.76-.56-11.51-4.89-12.02-4.5-1.21,6.09-4.18,9.76-.38,15.45,2.94,4.4,7.16,7.61,7.17,13.64.01,7.97-10,13.65-9.17,19.33.27,1.83,4.71,5.87,6.27,7.31,15.31,14.16,35.77,23.76,56.15,27.83l-47.42-47.68,5.97-5.53,47.25,46.93ZM155.49,175.74c-9.49,7.23-22.28,7.56-31.7,0-.74,1.89.94,4.62,1.98,6.25,8.1,12.74,27.69,8.57,29.72-6.25Z"/>
</svg>